<svg xmlns="http://www.w3.org/2000/svg" viewBox="0 0 363 512">
  <path fill="#264de4" d="M363 101l-33 370-149 41-148-41L0 101z"/>
  <path fill="#2965f1" d="M301 447l29-316H181v350z"/>
  <path fill="#ebebeb" d="M76 268l4 46h101v-46zm105-92H67l5 46h109zm0 257v-47l-50-13-4-37H82l6 72 93 25z"/>
  <path d="M85 0h55v23h-32v23h32v23H85zm66 0h55v20h-32v4h32v46h-55V49h32v-4h-32zm66 0h55v20h-32v4h32v46h-55V49h32v-4h-32z"/>
  <path fill="#fff" d="M237 314l-5 59-51 13v47l93-25 1-8 11-120 1-12 8-92H181v46h64l-4 46h-60v46z"/>
</svg>